<svg xmlns="http://www.w3.org/2000/svg" width="108" height="36" viewBox="0 0 108 36" fill="none"><path d="M6.49128 27.5588H3.73156L1 8.44118H2.97123L5.28038 24.5882L8.29355 8.44118H10.4056L13.4187 24.5882L15.7279 8.44118H17.6991L14.9676 27.5588H12.2078L9.33549 12.2941L6.49128 27.5588Z" fill="white"></path><path d="M35.1478 27.5588H26.8405V8.44118H34.8662V10.2059H28.8117V16.9706H33.7398V18.7353H28.8117V25.7941H35.1478V27.5588Z" fill="white"></path><path d="M44.4495 8.44118H48.7018C50.1661 8.44118 51.2738 8.80392 52.0247 9.52941C52.7944 10.2549 53.1793 11.2647 53.1793 12.5588V14.3235C53.1793 15.9902 52.5128 17.0588 51.1799 17.5294C52.7006 17.9608 53.4609 19.049 53.4609 20.7941V23.4412C53.4609 24.7549 53.0854 25.7745 52.3345 26.5C51.5835 27.2059 50.4665 27.5588 48.9834 27.5588H44.4495V8.44118ZM51.4897 23.4412V20.7941C51.4897 20.1667 51.2644 19.598 50.8138 19.0882C50.3632 18.5588 49.7531 18.2941 48.9834 18.2941H46.4208V25.7941H48.9834C49.7719 25.7941 50.382 25.5686 50.8138 25.1176C51.2644 24.6471 51.4897 24.0882 51.4897 23.4412ZM51.208 14.3235V12.5588C51.208 11.9314 50.9828 11.3824 50.5322 10.9118C50.1004 10.4412 49.4903 10.2059 48.7018 10.2059H46.4208V16.8235H48.7018C49.4903 16.8235 50.1004 16.5686 50.5322 16.0588C50.9828 15.549 51.208 14.9706 51.208 14.3235Z" fill="white"></path><path d="M67.6786 25.7941V27.5588H62.8913V25.7941H64.2994V10.2059H62.8913V8.44118H67.6786V10.2059H66.2706V25.7941H67.6786Z" fill="white"></path><path d="M86.6748 12.1176V23.8824C86.6748 25.1961 86.2711 26.2157 85.4639 26.9412C84.6754 27.6471 83.4833 28 81.8875 28C80.3105 28 79.1184 27.6471 78.3111 26.9412C77.5039 26.2157 77.1002 25.1961 77.1002 23.8824V12.1176C77.1002 10.8039 77.4945 9.79412 78.283 9.08824C79.0902 8.36274 80.2824 8 81.8593 8C83.4551 8 84.6566 8.36274 85.4639 9.08824C86.2711 9.79412 86.6748 10.8039 86.6748 12.1176ZM84.7035 23.8824V12.1176C84.7035 10.549 83.7649 9.76471 81.8875 9.76471C80.0101 9.76471 79.0715 10.549 79.0715 12.1176V23.8824C79.0715 25.451 80.0101 26.2353 81.8875 26.2353C83.7649 26.2353 84.7035 25.451 84.7035 23.8824Z" fill="white"></path><path d="M98.918 27.5588H96.9467V8.44118H98.918L105.029 23.1471V8.44118H107V27.5588H105.029L98.918 12.8529V27.5588Z" fill="white"></path><rect width="108" height="1" fill="white"></rect><rect y="35" width="108" height="1" fill="white"></rect></svg>